<svg>
  <symbol id="logo" fill="none" xmlns="http://www.w3.org/2000/svg">
    <path fill-rule="evenodd" clip-rule="evenodd" d="M32 18c0 2.874-.599 5.59-1.663 8H17c2.463-3.772 5-8.34 5-13C22 7.002 17.939 1.953 12.416.453A14.35 14.35 0 0 1 16 0c8.837 0 16 8.059 16 18Zm-14-5a9 9 0 0 0-9-9c-6.65 0-9 8.507-9 14 0 9.941 7.163 18 16 18 4.739 0 8.996-2.318 11.926-6H9c.352-.449.72-.91 1.099-1.386C13.616 24.201 18 18.7 18 13Z" fill="#7859CF"/>
  </symbol>
  <symbol id="enter" fill="none" xmlns="http://www.w3.org/2000/svg">
    <path fill-rule="evenodd" clip-rule="evenodd" d="M10.667 4a2.667 2.667 0 1 1-5.334 0 2.667 2.667 0 0 1 5.334 0ZM12 4a4 4 0 1 1-8 0 4 4 0 0 1 8 0Zm-8.803 8.31C4.437 11.277 6.16 10.667 8 10.667s3.564.61 4.803 1.643c1.232 1.027 1.864 2.362 1.864 3.69H16c0-1.768-.843-3.464-2.343-4.714-1.5-1.25-3.535-1.953-5.657-1.953s-4.157.703-5.657 1.953S0 14.232 0 16h1.333c0-1.328.632-2.663 1.864-3.69Z" fill="#333"/>
  </symbol>
  <symbol id="basket" fill="none" xmlns="http://www.w3.org/2000/svg">
    <path fill-rule="evenodd" clip-rule="evenodd" d="m5.66 3.875.234 2.792h4.213l.232-2.792a2.347 2.347 0 1 0-4.678 0Zm5.784 2.792.224-2.68a3.68 3.68 0 1 0-7.336 0l.224 2.68H0L.19 8l.816 5.71A2.667 2.667 0 0 0 3.646 16h8.708a2.667 2.667 0 0 0 2.64-2.29L15.81 8 16 6.667h-4.556ZM11.334 8h-.054l-.222 2.667h3.024L14.462 8h-3.129ZM9.941 8H6.058l.222 2.667h3.44L9.942 8ZM4.72 8H1.537l.381 2.667h3.024L4.72 8Zm1.893 6.667L6.391 12H9.61l-.222 2.667H6.613ZM10.947 12l-.222 2.667h1.629c.663 0 1.226-.488 1.32-1.145L13.89 12h-2.944Zm-5.894 0 .222 2.667H3.646a1.333 1.333 0 0 1-1.32-1.145L2.11 12h2.944Z" fill="#333"/>
  </symbol>
  <symbol id="speed" fill="none" xmlns="http://www.w3.org/2000/svg">
    <path fill-rule="evenodd" clip-rule="evenodd" d="M24 4h8v3h-3v3.021a22.873 22.873 0 0 1 10.503 3.058c1.851-1.931 6.252.167 4.76 3.657A22.93 22.93 0 0 1 51 33c.001 12.703-10.296 23-22.999 23S5 45.703 5 33c0-6.67 2.84-12.677 7.376-16.878-.217.2-.43.405-.64.614-2.029-3.029 2.584-6.154 4.761-3.658A22.873 22.873 0 0 1 27 10.021V7h-3V4Z" fill="#F0EBFF"/>
    <path fill-rule="evenodd" clip-rule="evenodd" d="M27 1h-6v1h6V1Zm-2 2h3V0h-8v3h3v3.021a22.873 22.873 0 0 0-9.606 2.565l-.14-.161c-1.538-1.768-3.859-1.442-5.3-.401-.739.535-1.351 1.314-1.602 2.254-.258.966-.11 2.025.554 3.015l.123.184A22.917 22.917 0 0 0 1 29c0 12.703 10.297 23 23 23s23-10.297 23-23c0-5.96-2.267-11.39-5.986-15.476l.169-.394c.462-1.083.492-2.128.169-3.043-.318-.9-.95-1.6-1.685-2.06-1.408-.884-3.534-1.055-4.89.364l-.181.19A22.874 22.874 0 0 0 25 6.02V3Zm-1 4c-3.86 0-7.487.994-10.64 2.74l-.36.207a22.002 22.002 0 0 0-3.93 2.895A21.941 21.941 0 0 0 2 29c0 12.15 9.85 22 22 22s22-9.85 22-22a21.931 21.931 0 0 0-6.821-15.925A22 22 0 0 0 35 9.947l-.364-.21A21.9 21.9 0 0 0 24 7ZM12.498 9.078a23.077 23.077 0 0 0-4.761 3.658 2.981 2.981 0 0 1-.436-.974c-.547-2.313 2.312-4.314 4.346-3.339.307.148.595.363.85.655Zm23.005 0a23.081 23.081 0 0 1 4.76 3.659c.167-.39.26-.762.291-1.114.21-2.336-2.31-3.742-4.103-3.14a2.326 2.326 0 0 0-.948.596ZM24 31a2 2 0 0 0 .864-3.804L23.95 27A2 2 0 0 0 24 31Zm-.636-4.932-1.346-4.936-.04-.147.048-.143 1.5-4.5.474-1.423.474 1.423 1.5 4.5.048.143-.04.147-1.346 4.936c.13.028.256.064.379.108l7.55-13.421.87.49-7.549 13.422a3 3 0 1 1-2.522-.6Zm-.342-5.053L24 24.6l.978-3.585L24 18.08l-.978 2.934Z" fill="#7859CF"/>
  </symbol>
  <symbol id="comfort" fill="none" xmlns="http://www.w3.org/2000/svg">
    <path d="M4 4h48l-4 44-20 8-20-8L4 4Z" fill="#F0EBFF"/>
    <path fill-rule="evenodd" clip-rule="evenodd" d="M1.004 0H0l.09 1L4 44l20 8 20-8 3.91-43L48 0H1.004Zm.091 1 .364 4H46.54l.364-4H1.095Zm40.812 5H6.093l.101 1.132-.498.045-.498.044L5.089 6H1.55L4.94 43.3 24 50.922l19.06-7.624L46.45 6h-3.54l-.108 1.221-.498-.044-.498-.045.1-1.132ZM6.092 11.62l-.498.044.396 4.442.498-.045.498-.044-.396-4.442-.498.044Zm.791 8.884-.498.044.396 4.442.498-.044.498-.044-.396-4.443-.498.045Zm.792 8.884-.498.045.396 4.442.498-.044.498-.045-.396-4.442-.498.044Zm.792 8.885-.498.044.198 2.221 1.979.808.189-.463.189-.463-1.415-.577-.144-1.614-.498.044Zm5.826 4.226-.189.462 3.959 1.616.188-.463.19-.463-3.959-1.615-.189.463Zm7.917 3.23-.19.463L24 47l1.98-.808-.19-.463-.189-.463L24 45.92l-1.601-.654-.19.463Zm7.539-1.615.189.463 3.958-1.615-.19-.463-.188-.463-3.958 1.615.189.463Zm7.916-3.23.19.462 1.978-.807.198-2.222-.498-.044-.498-.044-.144 1.614-1.415.577.19.463Zm2.264-7.053.498.044.396-4.442-.498-.045-.498-.044-.396 4.442.498.045Zm.792-8.885.498.044.396-4.442-.498-.044-.498-.045-.396 4.443.498.044Zm.791-8.885.498.045.396-4.443-.498-.044-.498-.044-.396 4.442.498.044Z" fill="#7859CF"/>
  </symbol>
  <symbol id="courage" fill="none" xmlns="http://www.w3.org/2000/svg">
    <path fill-rule="evenodd" clip-rule="evenodd" d="M24.973 35.2 43.135 4 9 30.675 24.973 35.2Zm6.054-10.4L12.866 56 47 29.325 31.027 24.8Z" fill="#F0EBFF"/>
    <path fill-rule="evenodd" clip-rule="evenodd" d="M39.135 0 5 26.675 20.973 31.2 8.866 52 43 25.325 27.027 20.8 39.135 0Zm1.697 25.75-15.318-4.34L35.657 3.988 7.168 26.25l15.318 4.34-10.143 17.423L40.833 25.75Z" fill="#7859CF"/>
  </symbol>
  <symbol id="eco" fill="none" xmlns="http://www.w3.org/2000/svg">
    <path fill-rule="evenodd" clip-rule="evenodd" d="M41.707 22.122C42.477 15.557 43.204 9.35 49 4c-26.493 0-34.153 8.128-38 14-8.542 13.037-.915 25.67.71 28.086a808.638 808.638 0 0 0-2.741 5.51A848.331 848.331 0 0 1 7 55.56l.881.44c.635-1.268 1.298-2.608 1.984-3.996a825.817 825.817 0 0 1 2.647-5.322c2.595.867 14.453 4.183 21.988-4.682 5.657-6.655 6.452-13.438 7.207-19.878Z" fill="#F0EBFF"/>
    <path fill-rule="evenodd" clip-rule="evenodd" d="M8.232 41.055C12.19 33.258 16.686 25.095 21.267 20l.733.656c-4.569 5.082-9.07 13.297-13.032 21.123A26.195 26.195 0 0 0 16.09 43c4.384.12 9.663-.96 13.648-5.648 5.46-6.423 6.225-12.946 6.983-19.406l.015-.129c.681-5.81 1.384-11.634 5.875-16.794-11.79.23-19.481 2.162-24.667 4.675-5.5 2.665-8.252 6.018-10.108 8.85-4.553 6.95-4.318 13.762-2.933 18.878a28.925 28.925 0 0 0 2.483 6.182c.32.59.612 1.076.846 1.447Zm-.521 1.031C6.085 39.67-1.542 27.037 7 14 10.776 8.236 18.226.3 43.552.008 44.03.003 44.511 0 45 0c-.36.331-.699.666-1.02 1.004-4.866 5.116-5.551 10.96-6.273 17.118-.755 6.44-1.55 13.223-7.207 19.878-7.535 8.865-19.393 5.549-21.988 4.682-.915 1.817-1.799 3.606-2.647 5.322C5.179 49.392 4.516 50.732 3.88 52L3 51.56c.63-1.258 1.288-2.587 1.969-3.964a808.174 808.174 0 0 1 2.742-5.51Z" fill="#7859CF"/>
  </symbol>
  <symbol id="previous" fill="none" xmlns="http://www.w3.org/2000/svg">
    <path fill-rule="evenodd" clip-rule="evenodd" d="M4.808 0 6 1.239 2.383 5 6 8.761 4.808 10 0 5l4.808-5Z" fill="#7859CF"/>
  </symbol>
  <symbol id="next" fill="none" xmlns="http://www.w3.org/2000/svg">
    <path fill-rule="evenodd" clip-rule="evenodd" d="M1.192 0 0 1.239 3.617 5 0 8.761 1.192 10 6 5 1.192 0Z" fill="#7859CF"/>
  </symbol>
  <symbol id="vk" fill="none" xmlns="http://www.w3.org/2000/svg">
    <path fill-rule="evenodd" clip-rule="evenodd" d="M1.406 1.406C0 2.812 0 5.074 0 9.6v.8c0 4.525 0 6.788 1.406 8.194C2.812 20 5.074 20 9.6 20h.8c4.525 0 6.788 0 8.194-1.406C20 17.188 20 14.925 20 10.4v-.8c0-4.526 0-6.788-1.406-8.194C17.188 0 14.925 0 10.4 0h-.8C5.074 0 2.812 0 1.406 1.406Zm1.969 4.677c.108 5.2 2.708 8.325 7.267 8.325h.258v-2.975c1.675.167 2.942 1.392 3.45 2.975h2.367c-.65-2.366-2.359-3.675-3.425-4.175 1.066-.616 2.566-2.116 2.925-4.15h-2.15c-.467 1.65-1.85 3.15-3.167 3.292V6.083H8.75v5.767c-1.333-.333-3.017-1.95-3.092-5.767H3.375Z" fill="#BDBDBD"/>
  </symbol>
  <symbol id="pinterest" fill="none" xmlns="http://www.w3.org/2000/svg">
    <path d="M11 0C4.925 0 0 4.925 0 11c0 4.66 2.9 8.644 6.991 10.247-.096-.87-.183-2.21.038-3.16.2-.858 1.29-5.467 1.29-5.467s-.329-.659-.329-1.633c0-1.53.887-2.671 1.99-2.671.94 0 1.392.704 1.392 1.549 0 .944-.6 2.355-.91 3.662-.26 1.095.549 1.988 1.628 1.988 1.955 0 3.458-2.061 3.458-5.037 0-2.634-1.892-4.475-4.595-4.475-3.13 0-4.966 2.347-4.966 4.774 0 .945.364 1.959.818 2.51.09.109.103.204.076.315-.083.348-.269 1.095-.305 1.248-.048.201-.16.244-.368.147-1.374-.64-2.233-2.648-2.233-4.261 0-3.47 2.521-6.657 7.268-6.657 3.816 0 6.782 2.72 6.782 6.353 0 3.791-2.39 6.842-5.708 6.842-1.115 0-2.163-.58-2.522-1.263l-.685 2.615c-.248.955-.919 2.153-1.367 2.883C8.773 21.83 9.866 22 11 22c6.075 0 11-4.925 11-11S17.075 0 11 0Z" fill="#BDBDBD"/>
  </symbol>
  <symbol id="odnoklassniki" fill="none" xmlns="http://www.w3.org/2000/svg">
    <path fill-rule="evenodd" clip-rule="evenodd" d="M1.4 1.4C0 2.812 0 5.074 0 9.6v.914c0 4.456 0 6.698 1.4 8.086C2.812 20 5.074 20 9.6 20h.913c4.457 0 6.699 0 8.087-1.4 1.4-1.412 1.4-3.674 1.4-8.2v-.913c0-4.457 0-6.699-1.4-8.087C17.188 0 14.926 0 10.4 0h-.914C5.03 0 2.788 0 1.4 1.4Zm8.62 8.797a3.034 3.034 0 0 0 3.028-3.028 3.038 3.038 0 0 0-6.075 0 3.038 3.038 0 0 0 3.046 3.028Zm0-4.28c.688 0 1.25.563 1.25 1.252 0 .689-.562 1.251-1.25 1.251-.69 0-1.252-.562-1.252-1.251-.018-.69.544-1.251 1.251-1.251Zm1.214 6.764a5.729 5.729 0 0 0 1.76-.725.883.883 0 0 0 .271-1.233.883.883 0 0 0-1.233-.272 3.85 3.85 0 0 1-4.08 0 .903.903 0 0 0-1.233.272.904.904 0 0 0 .308 1.215c.544.345 1.143.58 1.76.725L7.1 14.35a.886.886 0 0 0 0 1.251.861.861 0 0 0 .635.254.94.94 0 0 0 .634-.254l1.668-1.668 1.669 1.668a.887.887 0 0 0 1.251 0 .887.887 0 0 0 0-1.251l-1.723-1.668Z" fill="#BDBDBD"/>
  </symbol>
  <symbol id="academy-logo" fill="none" xmlns="http://www.w3.org/2000/svg">
    <path d="M11.215 5.754 5.972 2.5v-.001H5.97L.785 5.75V1.407L6 .83l5.215.576v4.347Zm-.004.576L9.126 7.623 5.985 5.656l-.006.573 2.685 1.68-.463.288-2.216-1.388-.006.572 1.75 1.095-.413.291-.01.007-1.321-.82-.006.572.867.538-.883.558L.796 6.39l5.175-3.275 5.24 3.216Zm.004 5.441L6 15.038.785 11.771V7.025l5.193 3.255.008.59-3.562-2.233-.005.573 3.576 2.263.01.605-3.576-2.24-.005.573L6 12.675l3.606-2.272V7.957l1.61-1.011v4.825ZM6 0 0 .662v11.58L6 16l6-3.759V.662L6 0Z" fill="#BDBDBD"/>
  </symbol>
  <symbol id="contacts" fill="none" xmlns="http://www.w3.org/2000/svg">
    <path fill-rule="evenodd" clip-rule="evenodd" d="M11.8 6.5c0 2.33-1.367 4.417-2.912 6.01A17.54 17.54 0 0 1 6.5 14.558a17.54 17.54 0 0 1-2.388-2.046C2.567 10.917 1.2 8.83 1.2 6.5a5.3 5.3 0 1 1 10.6 0Zm1.2 0c0 5.59-6.5 9.5-6.5 9.5S0 12.09 0 6.5a6.5 6.5 0 0 1 13 0Zm-4.2 0a2.3 2.3 0 1 1-4.6 0 2.3 2.3 0 0 1 4.6 0Zm1.2 0a3.5 3.5 0 1 1-7 0 3.5 3.5 0 0 1 7 0Z" fill="#7859CF"/>
  </symbol>
  <symbol id="phone" fill="none" xmlns="http://www.w3.org/2000/svg">
    <path fill-rule="evenodd" clip-rule="evenodd" d="M1.478 1.49C.407 2.09-.173 3.236.046 4.32l.358 1.774c.926 3.123 2.5 5.769 4.825 8.109l1.405 1.188c.857.726 2.17.811 3.24.211l2.23-1.249c.873-.488 1.162-1.534.626-2.259l-1.935-2.613c-.516-.697-1.588-.812-2.366-.253l-1.375.988c-1.228-.88-2.008-2.19-2.179-3.662l1.57-.662c.887-.374 1.32-1.333.957-2.114L6.037.845C5.658.032 4.58-.247 3.707.241l-2.23 1.25Zm-.196 2.528c-.119-.59.197-1.216.782-1.543l2.23-1.25c.217-.121.487-.051.582.152L6.24 4.309c.091.196-.017.435-.239.529l-2.43 1.025.016.416c.082 2.126 1.212 4.025 3.068 5.157l.364.221 2.13-1.53c.194-.14.462-.11.591.064l1.935 2.613c.134.181.061.443-.157.565l-2.23 1.249c-.583.327-1.3.28-1.767-.115l-1.405-1.189C4.39 11.62 2.29 8.091 1.641 5.792l-.359-1.774Z" fill="#7859CF"/>
  </symbol>
  <symbol id="basket-button" fill="none" xmlns="http://www.w3.org/2000/svg">
    <path fill-rule="evenodd" clip-rule="evenodd" d="m13.674 13.522.003-.022h1.347l-.03.21a2.667 2.667 0 0 1-2.64 2.29H3.646a2.667 2.667 0 0 1-2.64-2.29L.19 8 0 6.667h4.556l-.224-2.68A3.68 3.68 0 0 1 11.618 3h-1.37a2.348 2.348 0 0 0-4.587.875l.233 2.792H9.5V8H6.058l.222 2.667h3.44l.014-.167h1.338l-.014.167H12.5V12h-1.553l-.222 2.667h1.629c.663 0 1.226-.488 1.32-1.145ZM4.72 8H1.537l.381 2.667h3.024L4.72 8Zm1.893 6.667L6.391 12H9.61l-.222 2.667H6.613ZM5.053 12l.222 2.667H3.646a1.333 1.333 0 0 1-1.32-1.145L2.11 12h2.944ZM15.8 10V7.2H13V5.8h2.8V3h1.4v2.8H20v1.4h-2.8V10h-1.4Z" fill="#fff"/>
  </symbol>
</svg>
